<svg version="1.1" xmlns="http://www.w3.org/2000/svg" width="350px" height="100px" style="">
<path style="transform: translateY(-20px)" fill="#ffffff" d="M44,47.84l30.16,0l0-6.08l-30.16,0q-5.92,0-9.92,4.64q-4.08,4.72-4.08,11.44q0,6.08,4.08,10.56q4,4.56,9.92,4.56l8,0l8.16,0q3.6,0,6.4,3.04q2.64,3.2,2.64,6.96q0,4.48-2.6,7.28t-6.44,2.8l-30.16,0l0,4.96l30.16,0q6,0,10-4.16t4-10.88q0-6.08-4-10.56q-4.08-4.48-10-4.48l-8.16,0l-8,0q-3.68,0-6.32-3.2q-2.72-2.96-2.72-6.88q0-4.48,2.6-7.24t6.44-2.76z M126.7072,42l-43.36,0l0,4.88l19.68,0l0,51.28l4.96,0l0-51.28l18.72,0l0-4.88z M161.4144,69.92l6,0q6.08,0,10.08-4t4-10.08q0-5.36-4-9.6q-4.24-4.4-10.08-4.4l-25.04,0l-4.96,0l0,56.16l4.96,0l0-28.08l13.04,0l17.04,28.08l6,0z M142.3744,64.96l0-18.08l25.04,0q3.68,0,6.48,2.64q2.64,2.64,2.64,6.32q0,3.84-2.64,6.48q-2.8,2.64-6.48,2.64l-25.04,0z M194.4416,98.08l5.04,0l0-56.24l-5.04,0l0,56.24z M231.1488,41.92l-12.24,0l-3.04,0l-2,0l0,56.08l2,0l3.04,0l12.24,0q11.68,0,20-8.16q8.56-8.4,8.56-20.4q0-11.36-8.56-19.52q-8.4-8-20-8z M231.1488,92.96l-12.24,0l0-45.84l12.24,0q10,0,16.8,6.56q6.72,6.56,6.72,15.76q0,10-6.72,16.72q-6.8,6.8-16.8,6.8z M277.056,82.64q0-3.84,2.72-6.96q2.72-3.28,6.56-3.28l1.04,0l14.96,0l0-4.96l-14.96,0l-1.04,0q-4.08-0.8-6.68-3.52t-2.6-6.48q0-4.72,2.76-7.48t7.56-2.76l27.2,0l0-5.04l-27.2,0q-6.16,0-10.72,4.56q-4.56,4.4-4.56,10.72q0,4,1.52,7.28t4.48,4.72q-2.96,2.16-4.48,5.68t-1.52,7.52q0,6.24,4.56,10.64q4.64,4.64,10.72,4.64l27.2,0l0-5.28l-27.2,0q-4.8,0-7.56-2.72t-2.76-7.28z">
</path>
</svg>